<svg  width="180" height="75" viewBox="0 0 190 50" fill="none" id="레이어_1" data-name="레이어 1" xmlns="http://www.w3.org/2000/svg" xmlns:xlink="http://www.w3.org/1999/xlink"><defs><style>.cls-1{fill:#231815;}.cls-2,.cls-4{fill:none;stroke-miterlimit:10;}.cls-2{stroke:#385df5;}.cls-3{fill:url(#무제_그라디언트_5);}.cls-4{stroke:#fff;}</style><linearGradient id="무제_그라디언트_5" y1="31.91" x2="65.22" y2="31.91" gradientUnits="userSpaceOnUse"><stop offset="0" stop-color="#fff"/><stop offset="1" stop-color="#385df5"/></linearGradient></defs><path class="cls-1" d="M341.19,408.83V445h-5.86V414.34L326.13,445h-2L315,414.34V445h-5.87V408.83h6.08l10,33.23,10-33.23h6.07Z" transform="translate(-225.49 -394.97)"/><path class="cls-1" d="M375.06,408.83V445h-5.87V414.34L360,445h-2l-9.2-30.61V445H343V408.83h6.07l10,33.23,10-33.23h6.08Z" transform="translate(-225.49 -394.97)"/><path class="cls-1" d="M403,408.83h5.88V445H403V426.89H382.73V445h-5.89V408.83h5.89V425H403Z" transform="translate(-225.49 -394.97)"/><path class="cls-1" d="M310,456.47v-7.86h.91l2.83,3.27,2.87-3.27h.91v7.86h-1v-6.2l-2.35,2.7h-.72L311,450.36v6.11Z" transform="translate(-225.49 -394.97)"/><path class="cls-1" d="M320,454.39a3.19,3.19,0,0,0,.09.42,1.13,1.13,0,0,0,1.2.78c.73,0,1.12-.15,1.23-.6h1.06c0,1.06-.82,1.62-2.24,1.6a2.23,2.23,0,0,1-2.1-1.14,4.07,4.07,0,0,1-.33-1.66,4.65,4.65,0,0,1,.24-1.65,2.1,2.1,0,0,1,2-1.27,2.82,2.82,0,0,1,1.6.31,1.67,1.67,0,0,1,.85,1.47c0,1.32-.65,1.8-2.21,1.74Zm1.76-1a.83.83,0,0,0,.63-.19.74.74,0,0,0,.19-.54.69.69,0,0,0-.49-.72,2.12,2.12,0,0,0-.81-.1,1.18,1.18,0,0,0-1.23.82,5.7,5.7,0,0,0-.11.73Z" transform="translate(-225.49 -394.97)"/><path class="cls-1" d="M328.38,452.29a1.52,1.52,0,0,0-.8-.27,1.3,1.3,0,0,0-.69.14,2.13,2.13,0,0,0-.88,1.63v2.68H325V451H326v.76a2,2,0,0,1,.79-.64,2.21,2.21,0,0,1,1-.18,2,2,0,0,1,.95.34Z" transform="translate(-225.49 -394.97)"/><path class="cls-1" d="M329.68,452.2a2.14,2.14,0,0,1,2-1.33c1.56-.06,2.43.78,2.44,1.76H333c0-.46-.48-.77-1.21-.77a1.22,1.22,0,0,0-1.22.88,5.08,5.08,0,0,0-.12,1,3.82,3.82,0,0,0,.13,1,1.2,1.2,0,0,0,1.21.87c.73,0,1.21-.31,1.21-.75h1.09c0,1-.88,1.81-2.44,1.75a2.14,2.14,0,0,1-1.92-1.23,3.63,3.63,0,0,1-.3-1.57A4.33,4.33,0,0,1,329.68,452.2Z" transform="translate(-225.49 -394.97)"/><path class="cls-1" d="M335.27,448.61h1.06v2.94a1.85,1.85,0,0,1,1.6-.68,2,2,0,0,1,1.61.76,3.13,3.13,0,0,1,.59,2.08v2.76h-1.06v-2.76a2.2,2.2,0,0,0-.33-1.34,1.17,1.17,0,0,0-1.05-.48,1.19,1.19,0,0,0-1,.46,2.23,2.23,0,0,0-.34,1.36v2.76h-1.06Z" transform="translate(-225.49 -394.97)"/><path class="cls-1" d="M343.79,456.47v-7.86h.91l2.83,3.27,2.87-3.27h.91v7.86h-1v-6.2l-2.35,2.7h-.72l-2.35-2.61v6.11Z" transform="translate(-225.49 -394.97)"/><path class="cls-1" d="M357.49,451v5.47h-1V456a2,2,0,0,1-1.45.6,1.9,1.9,0,0,1-1.81-.83,3.39,3.39,0,0,1-.54-1.94,3.23,3.23,0,0,1,.54-2,2.07,2.07,0,0,1,1.79-.86,1.89,1.89,0,0,1,1.49.62V451Zm-2.37.86c-.89,0-1.41.7-1.41,1.89s.52,1.89,1.41,1.89,1.3-.62,1.32-1.89C356.45,452.65,356,451.86,355.12,451.86Z" transform="translate(-225.49 -394.97)"/><path class="cls-1" d="M360.69,454h-.53v2.45H359.1V448.6h1.06v4.46h.53l1.84-2.06h1.21l-2.28,2.58,2.28,2.89h-1.18Z" transform="translate(-225.49 -394.97)"/><path class="cls-1" d="M365.52,454.39a3.19,3.19,0,0,0,.09.42,1.12,1.12,0,0,0,1.19.78c.74,0,1.13-.15,1.24-.6h1.06c0,1.06-.82,1.62-2.25,1.6a2.24,2.24,0,0,1-2.1-1.14,4.05,4.05,0,0,1-.32-1.66,4.65,4.65,0,0,1,.24-1.65,2.1,2.1,0,0,1,2-1.27,2.77,2.77,0,0,1,1.59.31,1.66,1.66,0,0,1,.86,1.47c0,1.32-.65,1.8-2.21,1.74Zm1.75-1a.86.86,0,0,0,.64-.19.74.74,0,0,0,.19-.54.7.7,0,0,0-.49-.72,2.18,2.18,0,0,0-.82-.1,1.18,1.18,0,0,0-1.22.82,5.7,5.7,0,0,0-.11.73Z" transform="translate(-225.49 -394.97)"/><path class="cls-1" d="M373.91,452.29a1.52,1.52,0,0,0-.81-.27,1.26,1.26,0,0,0-.68.14,2.14,2.14,0,0,0-.89,1.63v2.68h-1V451h1v.76a2,2,0,0,1,.8-.64,2.21,2.21,0,0,1,1-.18,2,2,0,0,1,.94.34Z" transform="translate(-225.49 -394.97)"/><path class="cls-1" d="M383,456.47H382V453h-3.44v3.47h-1.06V448.6h1.06v3.5H382v-3.5H383Z" transform="translate(-225.49 -394.97)"/><path class="cls-1" d="M385.55,454.39a3.53,3.53,0,0,0,.08.42,1.13,1.13,0,0,0,1.2.78c.73,0,1.13-.15,1.24-.6h1.05c0,1.06-.81,1.62-2.24,1.6a2.24,2.24,0,0,1-2.1-1.14,4.05,4.05,0,0,1-.32-1.66,4.44,4.44,0,0,1,.24-1.65,2.09,2.09,0,0,1,2-1.27,2.78,2.78,0,0,1,1.59.31,1.65,1.65,0,0,1,.85,1.47c0,1.32-.64,1.8-2.2,1.74Zm1.75-1a.88.88,0,0,0,.64-.19.74.74,0,0,0,.19-.54.7.7,0,0,0-.49-.72,2.2,2.2,0,0,0-.82-.1,1.18,1.18,0,0,0-1.22.82,4.35,4.35,0,0,0-.11.73Z" transform="translate(-225.49 -394.97)"/><path class="cls-1" d="M391.56,456.47h-1.05V448.6h1.05Z" transform="translate(-225.49 -394.97)"/><path class="cls-1" d="M394.3,451v.47a2.14,2.14,0,0,1,1.6-.58,2,2,0,0,1,1.59.68,3.42,3.42,0,0,1,.61,2.19,3.11,3.11,0,0,1-.59,2.08,2,2,0,0,1-1.61.76,2.09,2.09,0,0,1-1.6-.61v2.88h-1.06V451Zm.35,4.13a1.37,1.37,0,0,0,2.06,0,3,3,0,0,0,0-2.73,1.17,1.17,0,0,0-1-.47,1.15,1.15,0,0,0-1,.45,2.16,2.16,0,0,0-.35,1.41A2.23,2.23,0,0,0,394.65,455.13Z" transform="translate(-225.49 -394.97)"/><path class="cls-1" d="M400.14,454.39a3.19,3.19,0,0,0,.09.42,1.12,1.12,0,0,0,1.19.78c.74,0,1.13-.15,1.24-.6h1.06c0,1.06-.82,1.62-2.25,1.6a2.24,2.24,0,0,1-2.1-1.14,4.05,4.05,0,0,1-.32-1.66,4.65,4.65,0,0,1,.24-1.65,2.1,2.1,0,0,1,2-1.27,2.77,2.77,0,0,1,1.59.31,1.66,1.66,0,0,1,.86,1.47c0,1.32-.65,1.8-2.21,1.74Zm1.75-1a.86.86,0,0,0,.64-.19.74.74,0,0,0,.19-.54.7.7,0,0,0-.49-.72,2.18,2.18,0,0,0-.82-.1,1.18,1.18,0,0,0-1.22.82,4.35,4.35,0,0,0-.11.73Z" transform="translate(-225.49 -394.97)"/><path class="cls-1" d="M408.53,452.29a1.52,1.52,0,0,0-.81-.27,1.26,1.26,0,0,0-.68.14,2.14,2.14,0,0,0-.89,1.63v2.68h-1V451h1v.76a2,2,0,0,1,.79-.64,2.28,2.28,0,0,1,1-.18,2,2,0,0,1,.94.34Z" transform="translate(-225.49 -394.97)"/><polygon class="cls-2" points="16.3 3.53 75.2 44.05 20.56 60.29 16.3 3.53"/><polygon class="cls-3" points="65.22 0 0 45.56 60.5 63.83 65.22 0"/><line class="cls-2" x1="16.3" y1="3.53" x2="38.4" y2="18.74"/><line class="cls-4" x1="19.91" y1="51.57" x2="18.49" y2="32.65"/><line class="cls-4" x1="61.67" y1="48.08" x2="34.79" y2="56.07"/><line class="cls-4" x1="38.4" y1="18.74" x2="62.6" y2="35.39"/></svg>